<svg xmlns="http://www.w3.org/2000/svg" width="128" height="128" fill="none"><style>.conditional{display:none}@media (min-width:1px) and (max-width:47px){#g-1-47{display:block}}@media (min-width:48px) and (max-width:127px){#g-48-127{display:block}}@media (min-width:128px){#g-128-plus{display:block}}</style><g id="g-1-47" class="conditional"><g clip-path="url(#clip-1-47-a)"><g clip-path="url(#clip-1-47-b)"><path fill="#fff" d="M64 95.997c17.673 0 32-14.327 32-32 0-17.673-14.327-32-32-32-17.673 0-32 14.327-32 32 0 17.673 14.327 32 32 32Z"/><path fill="url(#paint-1-47-a)" d="M48.005 91.705a31.841 31.841 0 0 1-11.71-11.715l-.003.002-27.713-48A64.014 64.014 0 0 0 64 128l27.719-48.01a32.001 32.001 0 0 1-43.713 11.714Z"/><path fill="url(#paint-1-47-b)" d="M95.996 63.992a31.841 31.841 0 0 1-4.291 15.998l.003.002-27.712 48a64.015 64.015 0 0 0 55.435-96H63.996a32 32 0 0 1 32 32Z"/><path fill="url(#paint-1-47-c)" d="M64 89.333c13.992 0 25.334-11.342 25.334-25.333 0-13.991-11.343-25.334-25.334-25.334-13.99 0-25.333 11.343-25.333 25.334S50.009 89.333 64 89.333Z"/><path fill="url(#paint-1-47-d)" d="M47.996 36.295a31.841 31.841 0 0 1 16-4.283v-.004h55.425A64.011 64.011 0 0 0 31.997 8.582 64.014 64.014 0 0 0 8.565 32l27.718 48.009a32 32 0 0 1 11.713-43.713Z"/></g><path fill="#3C4043" d="M72 58.4c0-2.24 0-3.36.436-4.216a4 4 0 0 1 1.748-1.748C75.04 52 76.16 52 78.4 52h43.2c2.24 0 3.36 0 4.216.436a3.996 3.996 0 0 1 1.748 1.748c.436.856.436 1.976.436 4.216v47.2c0 2.24 0 3.36-.436 4.216a3.991 3.991 0 0 1-1.748 1.748c-.856.436-1.976.436-4.216.436H78.4c-2.24 0-3.36 0-4.216-.436a3.996 3.996 0 0 1-1.748-1.748C72 108.96 72 107.84 72 105.6V58.4Z"/><path fill="#fff" d="M96.612 104V66.391H84V60h32v6.391h-12.549V104h-6.84Z"/></g><defs><linearGradient id="paint-1-47-a" x1="7.134" x2="3.574" y1="128.001" y2="32.126" gradientUnits="userSpaceOnUse"><stop stop-color="#1E8E3E"/><stop offset="1" stop-color="#34A853"/></linearGradient><linearGradient id="paint-1-47-b" x1="96" x2="88.105" y1="128" y2="32.654" gradientUnits="userSpaceOnUse"><stop stop-color="#FBBC04"/><stop offset="1" stop-color="#FCC934"/></linearGradient><linearGradient id="paint-1-47-c" x1="64" x2="64" y1="1.641" y2="126.359" gradientUnits="userSpaceOnUse"><stop stop-color="#4285F4"/><stop offset="1" stop-color="#1A73E8"/></linearGradient><linearGradient id="paint-1-47-d" x1="64" x2="75.421" y1="0" y2="78.335" gradientUnits="userSpaceOnUse"><stop stop-color="#EA4335"/><stop offset="1" stop-color="#D93025"/></linearGradient><clipPath id="clip-1-47-a"><path fill="#fff" d="M0 0h128v128H0z"/></clipPath><clipPath id="clip-1-47-b"><path fill="#fff" d="M0 0h128v128H0z"/></clipPath></defs></g><g id="g-48-127" class="conditional"><g clip-path="url(#clip-48-127-a)"><path fill="#fff" d="M64 95.997c17.673 0 32-14.327 32-32 0-17.673-14.327-32-32-32-17.673 0-32 14.327-32 32 0 17.673 14.327 32 32 32Z"/><path fill="#202124" d="M98.56 90.64H128v6.693L98.56 110.8V90.64Z"/><path fill="url(#paint-48-127-a)" d="M48.004 91.705a31.841 31.841 0 0 1-11.71-11.715l-.002.002-27.713-48A64.014 64.014 0 0 0 63.999 128l27.718-48.009a32 32 0 0 1-43.713 11.713Z"/><path fill="url(#paint-48-127-b)" d="M95.995 63.992a31.842 31.842 0 0 1-4.29 15.998l.003.002-27.712 48a64.014 64.014 0 0 0 55.435-96H63.995a32.003 32.003 0 0 1 32 32Z"/><path fill="url(#paint-48-127-c)" d="M64 89.333c13.991 0 25.333-11.342 25.333-25.333 0-13.991-11.342-25.333-25.333-25.333-13.991 0-25.333 11.342-25.333 25.333 0 13.991 11.342 25.333 25.333 25.333Z"/><path fill="url(#paint-48-127-d)" d="M47.995 36.295a31.841 31.841 0 0 1 16-4.283v-.004h55.426A64.017 64.017 0 0 0 31.996 8.582 64.013 64.013 0 0 0 8.565 32l27.718 48.009a31.999 31.999 0 0 1 11.712-43.713Z"/><g clip-path="url(#clip-48-127-b)"><path fill="#3C4043" d="M46.667 61.6c0-1.494 0-2.24.29-2.81a2.67 2.67 0 0 1 1.166-1.166c.57-.29 1.317-.29 2.81-.29H126.4c.56 0 .84 0 1.054.108.188.096.341.25.437.437.109.214.109.494.109 1.054v38.4H50.933c-1.493 0-2.24 0-2.81-.29a2.666 2.666 0 0 1-1.166-1.166c-.29-.57-.29-1.317-.29-2.81V61.6Z"/><path fill="#fff" d="M62.997 88.333V68.67H56.54v-3.342h16.387v3.342H66.5v19.664h-3.503Zm17.368.514c-1.606 0-3.041-.374-4.305-1.124a8.107 8.107 0 0 1-2.989-3.085c-.706-1.307-1.06-2.795-1.06-4.466 0-1.564.343-3.01 1.028-4.338a8.206 8.206 0 0 1 2.86-3.181c1.242-.814 2.667-1.221 4.273-1.221 1.693 0 3.128.364 4.306 1.093a7.079 7.079 0 0 1 2.731 2.988c.621 1.264.932 2.688.932 4.273 0 .236-.01.45-.032.643 0 .193-.01.343-.032.45h-12.66c.086.9.31 1.681.675 2.345.471.836 1.092 1.468 1.863 1.896a5.077 5.077 0 0 0 2.507.643c1.092 0 2.002-.247 2.73-.74a5.73 5.73 0 0 0 1.768-1.895l2.86 1.382a8.867 8.867 0 0 1-2.892 3.148c-1.221.793-2.742 1.19-4.563 1.19ZM75.61 78.276h9.093a3.773 3.773 0 0 0-.321-1.285 4.149 4.149 0 0 0-.836-1.285 4.027 4.027 0 0 0-1.381-.932c-.557-.257-1.21-.386-1.96-.386-.943 0-1.778.246-2.507.74-.728.47-1.296 1.134-1.703 1.991-.171.365-.3.75-.385 1.157ZM98.3 88.847c-1.307 0-2.442-.192-3.406-.578-.964-.407-1.757-.943-2.378-1.607a6.966 6.966 0 0 1-1.381-2.217l3.116-1.35c.386.88.932 1.554 1.64 2.025.728.45 1.563.675 2.505.675.857 0 1.596-.15 2.217-.45.622-.321.932-.835.932-1.542 0-.45-.15-.814-.45-1.093-.278-.3-.664-.546-1.156-.739a11.434 11.434 0 0 0-1.639-.514l-1.96-.45a8.612 8.612 0 0 1-2.217-.9 5.447 5.447 0 0 1-1.671-1.606c-.428-.643-.643-1.403-.643-2.281 0-.986.279-1.832.836-2.539.578-.728 1.35-1.285 2.313-1.67a8.314 8.314 0 0 1 3.117-.579c1.028 0 1.96.14 2.796.418a5.988 5.988 0 0 1 2.217 1.189 5.367 5.367 0 0 1 1.51 1.927l-2.988 1.35c-.365-.728-.857-1.232-1.478-1.51a4.598 4.598 0 0 0-2.025-.45c-.814 0-1.5.171-2.056.514-.536.321-.803.75-.803 1.285 0 .557.235.996.706 1.318.493.321 1.093.578 1.8.77l2.378.58c1.628.406 2.849 1.028 3.663 1.863.814.814 1.221 1.81 1.221 2.988 0 1.05-.3 1.97-.9 2.763-.6.772-1.414 1.371-2.442 1.8-1.007.407-2.132.61-3.374.61Zm9.262-16.9h2.86v-4.628h3.47v4.627h4.017v3.02h-4.017v7.873c0 .814.161 1.435.482 1.863.343.429.911.643 1.703.643.386 0 .728-.053 1.028-.16.3-.13.6-.28.9-.45v3.373a6.6 6.6 0 0 1-1.157.354 7.102 7.102 0 0 1-1.446.128c-1.521 0-2.731-.439-3.631-1.317-.899-.9-1.349-2.132-1.349-3.695v-8.612h-2.86v-3.02Z"/></g></g><defs><linearGradient id="paint-48-127-a" x1="7.134" x2="3.574" y1="128.001" y2="32.126" gradientUnits="userSpaceOnUse"><stop stop-color="#1E8E3E"/><stop offset="1" stop-color="#34A853"/></linearGradient><linearGradient id="paint-48-127-b" x1="96" x2="88.105" y1="128" y2="32.654" gradientUnits="userSpaceOnUse"><stop stop-color="#FBBC04"/><stop offset="1" stop-color="#FCC934"/></linearGradient><linearGradient id="paint-48-127-c" x1="64" x2="64" y1="1.641" y2="126.359" gradientUnits="userSpaceOnUse"><stop stop-color="#4285F4"/><stop offset="1" stop-color="#1A73E8"/></linearGradient><linearGradient id="paint-48-127-d" x1="64" x2="75.42" y1="0" y2="78.335" gradientUnits="userSpaceOnUse"><stop stop-color="#EA4335"/><stop offset="1" stop-color="#D93025"/></linearGradient><clipPath id="clip-48-127-a"><path fill="#fff" d="M0 0h128v128H0z"/></clipPath><clipPath id="clip-48-127-b"><path fill="#fff" d="M46.667 57.333H128v40H46.667z"/></clipPath></defs></g><g id="g-128-plus" class="conditional"><g clip-path="url(#clip-128-plus-a)"><path fill="#fff" d="M64 95.997c17.673 0 32-14.327 32-32 0-17.673-14.327-32-32-32-17.673 0-32 14.327-32 32 0 17.673 14.327 32 32 32Z"/><path fill="#202124" d="M98.56 90.64H128V98l-29.44 12.8V90.64Z"/><path fill="url(#paint-128-plus-a)" d="M48.005 91.705a31.84 31.84 0 0 1-11.71-11.715l-.003.002-27.713-48A64.014 64.014 0 0 0 63.999 128l27.718-48.009a31.998 31.998 0 0 1-43.712 11.713Z"/><path fill="url(#paint-128-plus-b)" d="M95.996 63.992a31.842 31.842 0 0 1-4.291 15.998l.003.002-27.712 48a64.015 64.015 0 0 0 55.435-96H63.996a32.003 32.003 0 0 1 32 32Z"/><path fill="url(#paint-128-plus-c)" d="M64 90c14.36 0 26-11.64 26-26S78.36 38 64 38 38 49.64 38 64s11.64 26 26 26Z"/><path fill="url(#paint-128-plus-d)" d="M47.995 36.295a31.841 31.841 0 0 1 16-4.283v-.004h55.426A64.017 64.017 0 0 0 31.996 8.582 64.014 64.014 0 0 0 8.565 32l27.718 48.009a31.999 31.999 0 0 1 11.712-43.713Z"/><g clip-path="url(#clip-128-plus-b)"><path fill="#3C4043" d="M47 59.888c0-.66 0-.991.129-1.244a1.18 1.18 0 0 1 .515-.515c.253-.129.583-.129 1.244-.129h77.637c.516 0 .774 0 .972.1.173.089.314.23.403.403.1.197.1.456.1.972V98H48.888c-.66 0-.991 0-1.244-.129a1.18 1.18 0 0 1-.515-.515C47 97.103 47 96.773 47 96.112V59.888Z"/><path fill="#fff" d="M63.264 89V69.416h-6.432v-3.328h16.32v3.328h-6.4V89h-3.488Zm16.657.512c-1.6 0-3.03-.373-4.288-1.12a8.075 8.075 0 0 1-2.976-3.072c-.704-1.301-1.056-2.784-1.056-4.448 0-1.557.341-2.997 1.024-4.32a8.172 8.172 0 0 1 2.848-3.168c1.237-.81 2.656-1.216 4.256-1.216 1.685 0 3.114.363 4.288 1.088a7.049 7.049 0 0 1 2.72 2.976c.618 1.259.928 2.677.928 4.256 0 .235-.01.448-.032.64 0 .192-.01.341-.032.448H74.993c.085.896.31 1.675.672 2.336.47.832 1.088 1.461 1.856 1.888.768.427 1.6.64 2.496.64 1.088 0 1.994-.245 2.72-.736a5.707 5.707 0 0 0 1.76-1.888l2.848 1.376a8.83 8.83 0 0 1-2.88 3.136c-1.216.79-2.73 1.184-4.544 1.184Zm-4.736-10.528h9.056a3.759 3.759 0 0 0-.32-1.28 4.132 4.132 0 0 0-.832-1.28 4.01 4.01 0 0 0-1.376-.928c-.555-.256-1.206-.384-1.952-.384-.939 0-1.77.245-2.496.736-.726.47-1.29 1.13-1.696 1.984a5.23 5.23 0 0 0-.384 1.152Zm22.598 10.528c-1.301 0-2.432-.192-3.392-.576-.96-.405-1.75-.939-2.368-1.6a6.938 6.938 0 0 1-1.376-2.208l3.104-1.344c.384.875.928 1.547 1.632 2.016.725.448 1.557.672 2.496.672.853 0 1.59-.15 2.208-.448.619-.32.928-.832.928-1.536 0-.448-.149-.81-.448-1.088-.277-.299-.661-.544-1.152-.736a11.39 11.39 0 0 0-1.632-.512l-1.952-.448a8.578 8.578 0 0 1-2.208-.896 5.425 5.425 0 0 1-1.664-1.6c-.427-.64-.64-1.397-.64-2.272 0-.981.277-1.824.832-2.528.576-.725 1.344-1.28 2.304-1.664a8.28 8.28 0 0 1 3.104-.576c1.024 0 1.952.139 2.784.416.853.256 1.589.65 2.208 1.184a5.344 5.344 0 0 1 1.504 1.92l-2.976 1.344c-.363-.725-.853-1.227-1.472-1.504a4.575 4.575 0 0 0-2.016-.448c-.81 0-1.493.17-2.048.512-.533.32-.8.747-.8 1.28 0 .555.235.992.704 1.312.49.32 1.088.576 1.792.768l2.368.576c1.621.405 2.837 1.024 3.648 1.856.811.81 1.216 1.803 1.216 2.976 0 1.045-.299 1.963-.896 2.752-.597.768-1.408 1.365-2.432 1.792-1.003.405-2.123.608-3.36.608Zm9.224-16.832h2.848v-4.608h3.456v4.608h4v3.008h-4v7.84c0 .81.16 1.43.48 1.856.342.427.907.64 1.696.64.384 0 .726-.053 1.024-.16.299-.128.598-.277.896-.448v3.36a6.46 6.46 0 0 1-1.152.352 7.071 7.071 0 0 1-1.44.128c-1.514 0-2.72-.437-3.616-1.312-.896-.896-1.344-2.123-1.344-3.68v-8.576h-2.848V72.68Z"/></g></g><defs><linearGradient id="paint-128-plus-a" x1="7.134" x2="3.574" y1="128.001" y2="32.126" gradientUnits="userSpaceOnUse"><stop stop-color="#1E8E3E"/><stop offset="1" stop-color="#34A853"/></linearGradient><linearGradient id="paint-128-plus-b" x1="96" x2="88.105" y1="128" y2="32.654" gradientUnits="userSpaceOnUse"><stop stop-color="#FBBC04"/><stop offset="1" stop-color="#FCC934"/></linearGradient><linearGradient id="paint-128-plus-c" x1="64" x2="64" y1="0" y2="128" gradientUnits="userSpaceOnUse"><stop stop-color="#4285F4"/><stop offset="1" stop-color="#1A73E8"/></linearGradient><linearGradient id="paint-128-plus-d" x1="64" x2="75.42" y1="0" y2="78.335" gradientUnits="userSpaceOnUse"><stop stop-color="#EA4335"/><stop offset="1" stop-color="#D93025"/></linearGradient><clipPath id="clip-128-plus-a"><path fill="#fff" d="M0 0h128v128H0z"/></clipPath><clipPath id="clip-128-plus-b"><path fill="#fff" d="M47 58h81v40H47z"/></clipPath></defs></g></svg>